[Header]
FileType HTR
DataType HTRS
FileVersion 1
NumSegments 64
NumFrames 4
DataFrameRate 24
EulerRotationOrder ZYX
CalibrationUnits mm
RotationUnits Degrees
GlobalAxisofGravity Y
BoneLengthAxis Y
ScaleFactor 1.0
[SegmentNames&Hierarchy]
Hips	GLOBAL
Spine	Hips
Spine1	Spine
Spine2	Spine1
Neck	Spine2
Head	Neck
LeftEye	Head
RightEye	Head
LeftShoulder	Spine2
LeftArm	LeftShoulder
LeftForeArm	LeftArm
LeftHand	LeftForeArm
LeftHandThumb1	LeftHand
LeftHandThumb2	LeftHandThumb1
LeftHandThumb3	LeftHandThumb2
LeftHandThumb4	LeftHandThumb3
LeftHandIndex1	LeftHand
LeftHandIndex2	LeftHandIndex1
LeftHandIndex3	LeftHandIndex2
LeftHandIndex4	LeftHandIndex3
LeftHandMiddle1	LeftHand
LeftHandMiddle2	LeftHandMiddle1
LeftHandMiddle3	LeftHandMiddle2
LeftHandMiddle4	LeftHandMiddle3
LeftHandRing1	LeftHand
LeftHandRing2	LeftHandRing1
LeftHandRing3	LeftHandRing2
LeftHandRing4	LeftHandRing3
LeftHandPinky1	LeftHand
LeftHandPinky2	LeftHandPinky1
LeftHandPinky3	LeftHandPinky2
LeftHandPinky4	LeftHandPinky3
RightShoulder	Spine2
RightArm	RightShoulder
RightForeArm	RightArm
RightHand	RightForeArm
RightHandPinky1	RightHand
RightHandPinky2	RightHandPinky1
RightHandPinky3	RightHandPinky2
RightHandPinky4	RightHandPinky3
RightHandRing1	RightHand
RightHandRing2	RightHandRing1
RightHandRing3	RightHandRing2
RightHandRing4	RightHandRing3
RightHandMiddle1	RightHand
RightHandMiddle2	RightHandMiddle1
RightHandMiddle3	RightHandMiddle2
RightHandMiddle4	RightHandMiddle3
RightHandIndex1	RightHand
RightHandIndex2	RightHandIndex1
RightHandIndex3	RightHandIndex2
RightHandIndex4	RightHandIndex3
RightHandThumb1	RightHand
RightHandThumb2	RightHandThumb1
RightHandThumb3	RightHandThumb2
RightHandThumb4	RightHandThumb3
LeftUpLeg	Hips
LeftLeg	LeftUpLeg
LeftFoot	LeftLeg
LeftToeBase	LeftFoot
RightUpLeg	Hips
RightLeg	RightUpLeg
RightFoot	RightLeg
RightToeBase	RightFoot
[BasePosition]
Hips	0	0	0	0	0	0	1
Spine	0	0	0	0	0	0	1
Spine1	0	0	0	0	0	0	1
Spine2	0	0	0	0	0	0	1
Neck	0	0	0	0	0	0	1
Head	0	0	0	0	0	0	1
LeftEye	0	0	0	0	0	0	1
RightEye	0	0	0	0	0	0	1
LeftShoulder	0	0	0	0	0	0	1
LeftArm	0	0	0	0	0	0	1
LeftForeArm	0	0	0	0	0	0	1
LeftHand	0	0	0	0	0	0	1
LeftHandThumb1	0	0	0	0	0	0	1
LeftHandThumb2	0	0	0	0	0	0	1
LeftHandThumb3	0	0	0	0	0	0	1
LeftHandThumb4	0	0	0	0	0	0	1
LeftHandIndex1	0	0	0	0	0	0	1
LeftHandIndex2	0	0	0	0	0	0	1
LeftHandIndex3	0	0	0	0	0	0	1
LeftHandIndex4	0	0	0	0	0	0	1
LeftHandMiddle1	0	0	0	0	0	0	1
LeftHandMiddle2	0	0	0	0	0	0	1
LeftHandMiddle3	0	0	0	0	0	0	1
LeftHandMiddle4	0	0	0	0	0	0	1
LeftHandRing1	0	0	0	0	0	0	1
LeftHandRing2	0	0	0	0	0	0	1
LeftHandRing3	0	0	0	0	0	0	1
LeftHandRing4	0	0	0	0	0	0	1
LeftHandPinky1	0	0	0	0	0	0	1
LeftHandPinky2	0	0	0	0	0	0	1
LeftHandPinky3	0	0	0	0	0	0	1
LeftHandPinky4	0	0	0	0	0	0	1
RightShoulder	0	0	0	0	0	0	1
RightArm	0	0	0	0	0	0	1
RightForeArm	0	0	0	0	0	0	1
RightHand	0	0	0	0	0	0	1
RightHandPinky1	0	0	0	0	0	0	1
RightHandPinky2	0	0	0	0	0	0	1
RightHandPinky3	0	0	0	0	0	0	1
RightHandPinky4	0	0	0	0	0	0	1
RightHandRing1	0	0	0	0	0	0	1
RightHandRing2	0	0	0	0	0	0	1
RightHandRing3	0	0	0	0	0	0	1
RightHandRing4	0	0	0	0	0	0	1
RightHandMiddle1	0	0	0	0	0	0	1
RightHandMiddle2	0	0	0	0	0	0	1
RightHandMiddle3	0	0	0	0	0	0	1
RightHandMiddle4	0	0	0	0	0	0	1
RightHandIndex1	0	0	0	0	0	0	1
RightHandIndex2	0	0	0	0	0	0	1
RightHandIndex3	0	0	0	0	0	0	1
RightHandIndex4	0	0	0	0	0	0	1
RightHandThumb1	0	0	0	0	0	0	1
RightHandThumb2	0	0	0	0	0	0	1
RightHandThumb3	0	0	0	0	0	0	1
RightHandThumb4	0	0	0	0	0	0	1
LeftUpLeg	0	0	0	0	0	0	1
LeftLeg	0	0	0	0	0	0	1
LeftFoot	0	0	0	0	0	0	1
LeftToeBase	0	0	0	0	0	0	1
RightUpLeg	0	0	0	0	0	0	1
RightLeg	0	0	0	0	0	0	1
RightFoot	0	0	0	0	0	0	1
RightToeBase	0	0	0	0	0	0	1
[Hips]
164	2.199452877	1016.444824	15.85721207	-1.005274773	1.465423107	-5.274634361	1.0
165	2.220058441	1016.431519	15.68246841	-1.002550602	1.459622979	-5.276383877	1.0
166	2.244007111	1016.378235	15.5442524	-1.002612829	1.458496332	-5.281400681	1.0
167	2.27209425	1016.316406	15.45123577	-1.008753181	1.459668636	-5.289408207	1.0
[Spine]
164	0	101.8159943	1.315000057	0.8305190802	-1.298107386	2.913958549	1.0
165	0	101.8159943	1.315000057	0.8438459039	-1.301369548	2.919796228	1.0
166	0	101.8159943	1.315000057	0.8546340466	-1.307347775	2.930149555	1.0
167	0	101.8159943	1.315000057	0.8638583422	-1.313606262	2.941767931	1.0
[Spine1]
164	0	100.8349991	-10.00800037	0.06536293775	0.1207842231	5.955024719	1.0
165	0	100.8349991	-10.00800037	0.0893279165	0.1222285628	5.953714848	1.0
166	0	100.8349991	-10.00800037	0.112022981	0.123420164	5.952709198	1.0
167	0	100.8349991	-10.00800037	0.1340090632	0.1247051433	5.951385975	1.0
[Spine2]
164	0	91	-13.73399925	0.09611842036	0.7115135193	5.861281872	1.0
165	0	91	-13.73399925	0.1202213988	0.7103583813	5.860267162	1.0
166	0	91	-13.73399925	0.1430583596	0.7089061737	5.859541893	1.0
167	0	91	-13.73399925	0.1651855707	0.7075181007	5.858493805	1.0
[Neck]
164	0	166.7169952	-25.16200066	0.9613507986	-0.2598460615	-2.253787994	1.0
165	0	166.7169952	-25.16200066	0.9655430913	-0.2593525648	-2.254329205	1.0
166	0	166.7169952	-25.16200066	0.9725895524	-0.2602305114	-2.250469685	1.0
167	0	166.7169952	-25.16200066	0.9821820855	-0.2617177367	-2.243144751	1.0
[Head]
164	0	96.17900085	16.84999847	1.527147412	0.7388666868	-8.281936646	1.0
165	0	96.17900085	16.84999847	1.526349783	0.7366660833	-8.279976845	1.0
166	0	96.17900085	16.84999847	1.516885281	0.7298761606	-8.266648293	1.0
167	0	96.17900085	16.84999847	1.511916637	0.7232533097	-8.248538971	1.0
[LeftEye]
164	30.6760006	64.09500122	92.83599854	0	0	0	1.0
165	30.6760006	64.09500122	92.83599854	0	0	0	1.0
166	30.6760006	64.09500122	92.83599854	0	0	0	1.0
167	30.6760006	64.09500122	92.83599854	0	0	0	1.0
[RightEye]
164	-30.6760006	64.09500122	92.83499908	0	0	0	1.0
165	-30.6760006	64.09500122	92.83499908	0	0	0	1.0
166	-30.6760006	64.09500122	92.83499908	0	0	0	1.0
167	-30.6760006	64.09500122	92.83499908	0	0	0	1.0
[LeftShoulder]
164	45.70400238	109.4599991	-26.28000069	4.676588535	-13.65005016	0.7608402967	1.0
165	45.70400238	109.4599991	-26.28000069	4.688525677	-13.64651394	0.5016385317	1.0
166	45.70400238	109.4599991	-26.28000069	4.702097893	-13.63468075	0.2362054586	1.0
167	45.70400238	109.4599991	-26.28000069	4.716482162	-13.61406136	-0.03070881218	1.0
[LeftArm]
164	105.923996	-5.24600029	-22.32099915	-2.853350163	4.645442963	-90.70602417	1.0
165	105.923996	-5.24600029	-22.32099915	-2.8789711	4.64161253	-90.43874359	1.0
166	105.923996	-5.24600029	-22.32099915	-2.915686846	4.649256706	-90.17797852	1.0
167	105.923996	-5.24600029	-22.32099915	-2.959340572	4.662834644	-89.92556	1.0
[LeftForeArm]
164	278.414978	-0.0009999999311	0	-1.968045126e-06	-14.47687531	-0.0002039578976	1.0
165	278.414978	-0.0009999999311	0	3.86034435e-06	-14.48115063	-0.0002118061384	1.0
166	278.414978	-0.0009999999311	0	3.249819883e-06	-14.48576546	-0.0002082819556	1.0
167	278.414978	-0.0009999999311	0	2.485987238e-07	-14.4919529	-0.0001996479987	1.0
[LeftHand]
164	283.2879944	0	0	-27.55231094	-1.170435548	-10.12754536	1.0
165	283.2879944	0	0	-27.55571938	-1.165932894	-10.14025211	1.0
166	283.2879944	0	0	-27.58726501	-1.206571817	-10.15666199	1.0
167	283.2879944	0	0	-27.63140297	-1.262276411	-10.16772175	1.0
[LeftHandThumb1]
164	24.6609993	-15.75	26.8239994	17.49291039	-5.33430481	9.174403191	1.0
165	24.6609993	-15.75	26.8239994	17.51329613	-5.282428741	9.211619377	1.0
166	24.6609993	-15.75	26.8239994	17.5340271	-5.229850769	9.24936676	1.0
167	24.6609993	-15.75	26.8239994	17.55506134	-5.176692486	9.287561417	1.0
[LeftHandThumb2]
164	32.29800034	-18.64699936	18.64699936	-1.160416126	30.95288849	-3.250952959	1.0
165	32.29800034	-18.64699936	18.64699936	-1.135841489	31.01758766	-3.23716259	1.0
166	32.29800034	-18.64699936	18.64699936	-1.110897422	31.08320236	-3.223142147	1.0
167	32.29800034	-18.64699936	18.64699936	-1.085641742	31.14956474	-3.208935738	1.0
[LeftHandThumb3]
164	26.52600098	-15.31499958	15.31499958	1.597765207	7.499073982	-0.4651396871	1.0
165	26.52600098	-15.31499958	15.31499958	1.614863873	7.563616276	-0.4496155083	1.0
166	26.52600098	-15.31499958	15.31499958	1.632217765	7.629063606	-0.4338468909	1.0
167	26.52600098	-15.31499958	15.31499958	1.649793148	7.695261002	-0.4178789556	1.0
[LeftHandThumb4]
164	19.54599953	-11.28499985	11.28499985	0	0	0	1.0
165	19.54599953	-11.28499985	11.28499985	0	0	0	1.0
166	19.54599953	-11.28499985	11.28499985	0	0	0	1.0
167	19.54599953	-11.28499985	11.28499985	0	0	0	1.0
[LeftHandIndex1]
164	91.09299469	-5.170999527	22.60099792	-0.3548360467	4.732429028	-8.497545242	1.0
165	91.09299469	-5.170999527	22.60099792	-0.3529243469	4.730238438	-8.474385262	1.0
166	91.09299469	-5.170999527	22.60099792	-0.3509918451	4.728023529	-8.450932503	1.0
167	91.09299469	-5.170999527	22.60099792	-0.3490379453	4.725783348	-8.427210808	1.0
[LeftHandIndex2]
164	36.76399994	0	0	-0.6600746512	2.828551054	-21.22482109	1.0
165	36.76399994	0	0	-0.6589371562	2.82649684	-21.2016983	1.0
166	36.76399994	0	0	-0.6577799916	2.824412346	-21.17825508	1.0
167	36.76399994	0	0	-0.6566097736	2.82230401	-21.15455055	1.0
[LeftHandIndex3]
164	28.83100128	0	0	-0.1216587424	0.8698629141	-10.82108879	1.0
165	28.83100128	0	0	-0.1212214753	0.8675878048	-10.79803371	1.0
166	28.83100128	0	0	-0.1207817942	0.8652772903	-10.77464199	1.0
167	28.83100128	0	0	-0.1203384623	0.8629401326	-10.75098133	1.0
[LeftHandIndex4]
164	23.92700005	0	0	0	0	0	1.0
165	23.92700005	0	0	0	0	0	1.0
166	23.92700005	0	0	0	0	0	1.0
167	23.92700005	0	0	0	0	0	1.0
[LeftHandMiddle1]
164	95.33399963	0	0	-1.601338506	8.724876404	-16.53990555	1.0
165	95.33399963	0	0	-1.598511219	8.723218918	-16.51655388	1.0
166	95.33399963	0	0	-1.59564054	8.721536636	-16.49286461	1.0
167	95.33399963	0	0	-1.592736006	8.719833374	-16.46889877	1.0
[LeftHandMiddle2]
164	36.98199844	0	0	-1.472039223	3.871732712	-34.07191086	1.0
165	36.98199844	0	0	-1.470425844	3.870026112	-34.04869843	1.0
166	36.98199844	0	0	-1.468794584	3.868298769	-34.02519226	1.0
167	36.98199844	0	0	-1.467145681	3.866550684	-34.00141525	1.0
[LeftHandMiddle3]
164	29.50900078	0	0	-0.1643632799	1.548548698	-12.91547585	1.0
165	29.50900078	0	0	-0.1638054848	1.54632163	-12.89240551	1.0
166	29.50900078	0	0	-0.1632437408	1.544058084	-12.8690033	1.0
167	29.50900078	0	0	-0.1626767069	1.541769147	-12.84532928	1.0
[LeftHandMiddle4]
164	28.3390007	0	0	0	0	0	1.0
165	28.3390007	0	0	0	0	0	1.0
166	28.3390007	0	0	0	0	0	1.0
167	28.3390007	0	0	0	0	0	1.0
[LeftHandRing1]
164	91.04499817	-0.4390000105	-18.65100098	-2.766191006	11.42617607	-25.01376343	1.0
165	91.04499817	-0.4390000105	-18.65100098	-2.775250673	11.43070984	-25.08272743	1.0
166	91.04499817	-0.4390000105	-18.65100098	-2.784441471	11.4352951	-25.1526432	1.0
167	91.04499817	-0.4390000105	-18.65100098	-2.793742895	11.43992519	-25.22336769	1.0
[LeftHandRing2]
164	31.54000092	0	0	-1.0826509	3.903679371	-38.2766571	1.0
165	31.54000092	0	0	-1.086631179	3.909132004	-38.34490204	1.0
166	31.54000092	0	0	-1.090680122	3.914655209	-38.41412354	1.0
167	31.54000092	0	0	-1.09478271	3.920235157	-38.48413849	1.0
[LeftHandRing3]
164	29.37700081	0	0	-0.05026360601	1.717854619	-17.4267292	1.0
165	29.37700081	0	0	-0.05164861307	1.724453092	-17.49448776	1.0
166	29.37700081	0	0	-0.05305931717	1.731146336	-17.56320763	1.0
167	29.37700081	0	0	-0.05449355021	1.737916231	-17.63271713	1.0
[LeftHandRing4]
164	26.47500038	0	0	0	0	0	1.0
165	26.47500038	0	0	0	0	0	1.0
166	26.47500038	0	0	0	0	0	1.0
167	26.47500038	0	0	0	0	0	1.0
[LeftHandPinky1]
164	80.77799988	-4.887000084	-38.06099701	-4.667098045	16.09583473	-34.9053421	1.0
165	80.77799988	-4.887000084	-38.06099701	-4.686746597	16.09713745	-34.97615814	1.0
166	80.77799988	-4.887000084	-38.06099701	-4.706671238	16.09844589	-35.04797363	1.0
167	80.77799988	-4.887000084	-38.06099701	-4.726827145	16.09976196	-35.1206131	1.0
[LeftHandPinky2]
164	36	0	0	-1.8036412	3.689188957	-43.74449158	1.0
165	36	0	0	-1.808599114	3.693820953	-43.81253052	1.0
166	36	0	0	-1.813631058	3.698509932	-43.88150787	1.0
167	36	0	0	-1.818727732	3.703246117	-43.95127869	1.0
[LeftHandPinky3]
164	21.14200211	0	0	-0.4639258981	2.659403563	-18.6141777	1.0
165	21.14200211	0	0	-0.4666417837	2.66563201	-18.68200874	1.0
166	21.14200211	0	0	-0.4694027007	2.67194581	-18.75079536	1.0
167	21.14200211	0	0	-0.4722029269	2.678328753	-18.82037544	1.0
[LeftHandPinky4]
164	19.75699997	0	0	0	0	0	1.0
165	19.75699997	0	0	0	0	0	1.0
166	19.75699997	0	0	0	0	0	1.0
167	19.75699997	0	0	0	0	0	1.0
[RightShoulder]
164	-45.70000076	109.4620056	-26.28000069	5.849562645	2.8539958	-0.610798955	1.0
165	-45.70000076	109.4620056	-26.28000069	5.816024303	2.848719835	-0.3609499633	1.0
166	-45.70000076	109.4620056	-26.28000069	5.784286499	2.827144146	-0.1032117754	1.0
167	-45.70000076	109.4620056	-26.28000069	5.753455639	2.790201187	0.1512297243	1.0
[RightArm]
164	-105.9280014	-5.248000145	-22.32099915	0.9834390879	1.353517294	73.57437897	1.0
165	-105.9280014	-5.248000145	-22.32099915	0.9234817028	1.342885375	73.33040619	1.0
166	-105.9280014	-5.248000145	-22.32099915	0.8653967381	1.339294672	73.07759094	1.0
167	-105.9280014	-5.248000145	-22.32099915	0.8117734194	1.34861505	72.82828522	1.0
[RightForeArm]
164	-278.414978	0	0	-2.810393198e-06	17.75521088	-9.631644389e-07	1.0
165	-278.414978	0	0	4.225144892e-07	17.76471138	1.249476827e-05	1.0
166	-278.414978	0	0	-2.538080025e-06	17.77338409	4.662883839e-07	1.0
167	-278.414978	0	0	-5.473822057e-06	17.77476501	-1.21736648e-05	1.0
[RightHand]
164	-283.2879944	0	0.0009999999311	-12.4163084	-6.761647701	11.71741867	1.0
165	-283.2879944	0	0.0009999999311	-12.4656601	-6.761969566	11.71043491	1.0
166	-283.2879944	0	0.0009999999311	-12.52407265	-6.76423502	11.71065903	1.0
167	-283.2879944	0	0.0009999999311	-12.57692146	-6.766308308	11.71912479	1.0
[RightHandPinky1]
164	-80.76699829	-4.885000229	-38.06000137	-4.667011261	-16.09696198	34.90564346	1.0
165	-80.76699829	-4.885000229	-38.06000137	-4.686661243	-16.09826851	34.97647858	1.0
166	-80.76699829	-4.885000229	-38.06000137	-4.706586838	-16.09957886	35.04827881	1.0
167	-80.76699829	-4.885000229	-38.06000137	-4.726744175	-16.10089302	35.12090683	1.0
[RightHandPinky2]
164	-36	0	0.0009999999311	-1.802314043	-3.687483311	43.74446869	1.0
165	-36	0	0.0009999999311	-1.807270765	-3.692115784	43.81249237	1.0
166	-36	0	0.0009999999311	-1.812302113	-3.696806669	43.88147354	1.0
167	-36	0	0.0009999999311	-1.817397594	-3.701544762	43.95124054	1.0
[RightHandPinky3]
164	-21.14200211	0	0	-0.6812727451	0.226832509	20.21484375	1.0
165	-21.14200211	0	0	-0.6841601133	0.2206832319	20.28254128	1.0
166	-21.14200211	0	0	-0.687094748	0.2144519091	20.35118675	1.0
167	-21.14200211	0	0	-0.6900702119	0.2081524581	20.42061996	1.0
[RightHandPinky4]
164	-19.75699997	0	0	0	0	0	1.0
165	-19.75699997	0	0	0	0	0	1.0
166	-19.75699997	0	0	0	0	0	1.0
167	-19.75699997	0	0	0	0	0	1.0
[RightHandRing1]
164	-91.03599548	-0.4390000105	-18.65100098	-2.766131639	-11.42583084	25.0139122	1.0
165	-91.03599548	-0.4390000105	-18.65100098	-2.775188446	-11.43036747	25.08285522	1.0
166	-91.03599548	-0.4390000105	-18.65100098	-2.784379005	-11.4349575	25.15277863	1.0
167	-91.03599548	-0.4390000105	-18.65100098	-2.793680906	-11.43958759	25.22351265	1.0
[RightHandRing2]
164	-31.54000092	0	0	-1.082478762	-3.903182983	38.27669907	1.0
165	-31.54000092	0	0	-1.086461902	-3.908633947	38.3449707	1.0
166	-31.54000092	0	0	-1.090508103	-3.914154768	38.41418076	1.0
167	-31.54000092	0	0	-1.094607711	-3.919733763	38.48418045	1.0
[RightHandRing3]
164	-29.37700081	0	0	-0.1013097242	0.2766062021	15.90553284	1.0
165	-29.37700081	0	0	-0.1025167555	0.2699701786	15.97325134	1.0
166	-29.37700081	0	0	-0.1037475094	0.2632445693	16.04191208	1.0
167	-29.37700081	0	0	-0.1049998105	0.2564432919	16.11136436	1.0
[RightHandRing4]
164	-26.47500038	0	0	0	0	0	1.0
165	-26.47500038	0	0	0	0	0	1.0
166	-26.47500038	0	0	0	0	0	1.0
167	-26.47500038	0	0	0	0	0	1.0
[RightHandMiddle1]
164	-95.32500458	0	0	-1.601315737	-8.724646568	16.54003143	1.0
165	-95.32500458	0	0	-1.598483443	-8.722989082	16.51666832	1.0
166	-95.32500458	0	0	-1.595611691	-8.721308708	16.49296951	1.0
167	-95.32500458	0	0	-1.592707992	-8.719608307	16.46900368	1.0
[RightHandMiddle2]
164	-36.98199844	0	0	-1.471901774	-3.8712852	34.07194519	1.0
165	-36.98199844	0	0	-1.470293045	-3.869582415	34.04877853	1.0
166	-36.98199844	0	0	-1.468658924	-3.867851734	34.0252533	1.0
167	-36.98199844	0	0	-1.467006445	-3.866100073	34.00145721	1.0
[RightHandMiddle3]
164	-29.50900078	0	0	-0.2727565169	-1.740041494	16.55021286	1.0
165	-29.50900078	0	0	-0.2720605135	-1.737854481	16.52713585	1.0
166	-29.50900078	0	0	-0.2713539004	-1.735635757	16.50372887	1.0
167	-29.50900078	0	0	-0.2706403732	-1.733391047	16.48005104	1.0
[RightHandMiddle4]
164	-28.3390007	0	0.0009999999311	0	0	0	1.0
165	-28.3390007	0	0.0009999999311	0	0	0	1.0
166	-28.3390007	0	0.0009999999311	0	0	0	1.0
167	-28.3390007	0	0.0009999999311	0	0	0	1.0
[RightHandIndex1]
164	-91.08300018	-5.167999744	22.60099792	-0.3548296988	-4.732308388	8.497595787	1.0
165	-91.08300018	-5.167999744	22.60099792	-0.3529203832	-4.730124474	8.474456787	1.0
166	-91.08300018	-5.167999744	22.60099792	-0.3509864807	-4.727908134	8.451000214	1.0
167	-91.08300018	-5.167999744	22.60099792	-0.3490310609	-4.725664616	8.427271843	1.0
[RightHandIndex2]
164	-36.76399994	0	0	-0.6600194573	-2.828260183	21.22486687	1.0
165	-36.76399994	0	0	-0.658878684	-2.826205015	21.20173073	1.0
166	-36.76399994	0	0	-0.6577224731	-2.824122429	21.17827415	1.0
167	-36.76399994	0	0	-0.6565542817	-2.822015524	21.15455818	1.0
[RightHandIndex3]
164	-28.83100128	0	0	-0.254517287	-0.2208787948	14.4949646	1.0
165	-28.83100128	0	0	-0.2539369166	-0.2186333835	14.47190952	1.0
166	-28.83100128	0	0	-0.2533503771	-0.2163569927	14.44853592	1.0
167	-28.83100128	0	0	-0.2527580261	-0.2140541077	14.42489338	1.0
[RightHandIndex4]
164	-23.92700005	0	0	0	0	0	1.0
165	-23.92700005	0	0	0	0	0	1.0
166	-23.92700005	0	0	0	0	0	1.0
167	-23.92700005	0	0	0	0	0	1.0
[RightHandThumb1]
164	-24.64799881	-15.72700024	26.82600021	17.49256516	5.334523201	-9.174659729	1.0
165	-24.64799881	-15.72700024	26.82600021	17.51296616	5.282646656	-9.211870193	1.0
166	-24.64799881	-15.72700024	26.82600021	17.53370285	5.230068207	-9.249612808	1.0
167	-24.64799881	-15.72700024	26.82600021	17.55473328	5.176909924	-9.287807465	1.0
[RightHandThumb2]
164	-32.29800034	-18.64699936	18.64699936	-1.161091089	-30.95154953	3.252657413	1.0
165	-32.29800034	-18.64699936	18.64699936	-1.136514783	-31.01624489	3.238858461	1.0
166	-32.29800034	-18.64699936	18.64699936	-1.111572146	-31.08185577	3.224852085	1.0
167	-32.29800034	-18.64699936	18.64699936	-1.086323738	-31.14821815	3.210670233	1.0
[RightHandThumb3]
164	-26.52600098	-15.31399918	15.31399918	1.403068066	-6.638667107	1.265388966	1.0
165	-26.52600098	-15.31399918	15.31399918	1.419228792	-6.703455925	1.250208378	1.0
166	-26.52600098	-15.31399918	15.31399918	1.435623169	-6.769135952	1.234815121	1.0
167	-26.52600098	-15.31399918	15.31399918	1.4522264	-6.835566521	1.219230175	1.0
[RightHandThumb4]
164	-19.54599953	-11.28499985	11.28499985	0	0	0	1.0
165	-19.54599953	-11.28499985	11.28499985	0	0	0	1.0
166	-19.54599953	-11.28499985	11.28499985	0	0	0	1.0
167	-19.54599953	-11.28499985	11.28499985	0	0	0	1.0
[LeftUpLeg]
164	82.07800293	-67.51699829	-15.99599934	-17.34571266	15.24040508	12.10546875	1.0
165	82.07800293	-67.51699829	-15.99599934	-17.35739326	15.24414921	12.10538483	1.0
166	82.07800293	-67.51699829	-15.99599934	-17.37531662	15.25085068	12.10918617	1.0
167	82.07800293	-67.51699829	-15.99599934	-17.39059448	15.25847721	12.11714554	1.0
[LeftLeg]
164	0	-443.7049866	2.845999956	24.70660782	7.707844257	6.070558548	1.0
165	0	-443.7049866	2.845999956	24.70658112	7.708405972	6.065377712	1.0
166	0	-443.7049866	2.845999956	24.72678757	7.707517147	6.062592983	1.0
167	0	-443.7049866	2.845999956	24.7578125	7.704500675	6.06280899	1.0
[LeftFoot]
164	0	-444.2789917	-29.8219986	-3.885663033	2.789862633	-11.32894325	1.0
165	0	-444.2789917	-29.8219986	-3.882927895	2.793633461	-11.3244791	1.0
166	0	-444.2789917	-29.8219986	-3.896748066	2.791581154	-11.32096863	1.0
167	0	-444.2789917	-29.8219986	-3.914625168	2.784359217	-11.31791496	1.0
[LeftToeBase]
164	0	-87.28699493	107.1060028	-0.4621543586	-9.481545931e-07	1.295516995e-06	1.0
165	0	-87.28699493	107.1060028	-0.4693477452	-1.294089998e-05	4.310655299e-07	1.0
166	0	-87.28699493	107.1060028	-0.4660409391	-8.469304703e-06	-1.300102781e-07	1.0
167	0	-87.28699493	107.1060028	-0.4604920447	-2.316246537e-06	1.751460843e-07	1.0
[RightUpLeg]
164	-82.07800293	-67.51699829	-15.99599934	-1.989131093	-4.537065506	11.04834557	1.0
165	-82.07800293	-67.51699829	-15.99599934	-2.015267372	-4.534999371	11.05113316	1.0
166	-82.07800293	-67.51699829	-15.99599934	-2.049438238	-4.542265892	11.04769897	1.0
167	-82.07800293	-67.51699829	-15.99599934	-2.075039625	-4.55057478	11.04537296	1.0
[RightLeg]
164	0	-443.7049866	2.861999989	11.44134521	-5.637784004	2.106609344	1.0
165	0	-443.7049866	2.861999989	11.46558666	-5.652031898	2.100301504	1.0
166	0	-443.7049866	2.861999989	11.5180645	-5.649560928	2.111138582	1.0
167	0	-443.7049866	2.861999989	11.57201767	-5.642942905	2.124591112	1.0
[RightFoot]
164	0	-444.2770081	-29.83799934	-9.727750778	-0.365228653	-8.18450737	1.0
165	0	-444.2770081	-29.83799934	-9.729524612	-0.3649186194	-8.181845665	1.0
166	0	-444.2770081	-29.83799934	-9.747389793	-0.3660936356	-8.187749863	1.0
167	0	-444.2770081	-29.83799934	-9.768942833	-0.3676784039	-8.194465637	1.0
[RightToeBase]
164	0	-87.28699493	107.1060028	-0.5816037655	-9.928896816e-09	-1.078451078e-06	1.0
165	0	-87.28699493	107.1060028	-0.5848197341	9.186864958e-08	-1.595330673e-06	1.0
166	0	-87.28699493	107.1060028	-0.5964325666	-5.561333637e-06	-1.843228347e-06	1.0
167	0	-87.28699493	107.1060028	-0.6070488691	-1.015753878e-05	-2.122773594e-06	1.0
[EndOfFile]
